Coordinates
version=1
nRows=8
nColumns=33
inDegrees=yes

Units are S.I. units (second, meters, Newtons, ...)
Angles are in degrees.

endheader
time	ground_thorax_rot_x	ground_thorax_rot_y	ground_thorax_rot_z	ground_thorax_tx	ground_thorax_ty	ground_thorax_tz	clav_prot_r	clav_elev_r	scapula_abduction_r	scapula_elevation_r	scapula_upward_rot_r	scapula_winging_r	shoulder_elv_r	plane_of_elev_r	axial_rot_r	elbow_flexion_r	pro_sup_r	wrist_flex_r	wrist_dev_r	clav_prot_l	clav_elev_l	scapula_abduction_l	scapula_elevation_l	scapula_upward_rot_l	scapula_winging_l	shoulder_elv_l	plane_of_elev_l	axial_rot_l	elbow_flexion_l	pro_sup_l	wrist_flex_l	wrist_dev_l
      8.68000000	    -38.29905982	    -11.14902061	     16.63926254	   -183.81117047	    817.77201706	      4.45829350	      4.73530930	    -45.00000000	     38.95002401	    -45.00000000	    -25.47512245	   3140.40132098	  -1731.09683217	     32.39958603	     61.11508736	   1092.04651053	     11.42854522	     19.00449470	      9.95888992	     16.56047671	     38.43901859	    -39.97372398	    -45.00000000	    -43.47533720	  -1357.27423258	   2591.36782493	     24.55679980	    -41.69914429	   2182.56867209	    160.68846486	     -2.49856586	     -9.60066683
      8.69000000	    -38.25248605	    -11.29371770	     16.80690809	   -180.22786805	    815.60397686	      4.52989948	      4.73474889	    -45.00000000	     39.00672777	    -45.00000000	    -25.23990702	   3140.61637525	  -1731.44334207	     32.33319969	     61.28711243	   1091.94666004	     11.30185310	     18.88653225	     10.20321612	     16.54682689	     38.48602355	    -40.00318109	    -45.00000000	    -43.31444639	  -1357.48727654	   2591.20776142	     24.66228321	    -41.69634232	   2182.52657341	    159.94622402	     -2.70074299	     -9.78897662
      8.70000000	    -38.23385699	    -11.21895896	     16.92050749	   -176.58163013	    813.38046852	      4.62094357	      4.20722797	    -45.00000000	     38.94679612	    -45.00000000	    -24.40215273	   3140.84396238	  -1731.73631523	     32.01200813	     61.65943839	   1091.80122770	     11.22617493	     18.73551854	     10.65682068	     17.27317248	     38.66867692	    -40.33095489	    -45.00000000	    -43.28259053	  -1358.09654184	   2591.22295590	     24.45410306	    -40.90585586	   2182.45780731	    158.82771567	     -2.94566652	    -10.00191638
      8.71000000	    -38.12430774	    -11.50835941	     17.24049543	   -172.88013911	    811.11067344	      4.73234405	      4.33609324	    -45.00000000	     39.04949981	    -45.00000000	    -24.37142440	   3141.01493240	  -1732.05901162	     31.94069128	     61.84810195	   1091.72727310	     11.13264536	     18.62353165	     10.84756762	     17.13925037	     38.66627475	    -40.32955535	    -45.00000000	    -43.22353804	  -1358.17200599	   2590.85846213	     24.68802794	    -40.83184502	   2182.36975842	    157.51368368	     -3.08350917	    -10.27152259
      8.72000000	    -38.12188139	    -11.66273039	     17.44248889	   -169.12638756	    808.79803790	      4.86314396	      4.47137180	    -45.00000000	     39.07330973	    -45.00000000	    -24.46242078	   3141.27687317	  -1732.49595156	     31.90262044	     61.95091825	   1091.55343996	     11.07141490	     18.47282408	     11.04488859	     16.92636897	     38.68922295	    -40.31758236	    -45.00000000	    -43.06120171	  -1358.31169681	   2590.72159423	     24.91362532	    -40.97855856	   2182.22667536	    155.98761452	     -3.28650107	    -10.61865472
      8.73000000	    -38.07293012	    -11.55313964	     17.41740131	   -165.33305027	    806.45179329	      5.01163993	      3.81343556	    -45.00000000	     39.04068556	    -45.00000000	    -23.36930569	   3141.49689773	  -1732.78378802	     31.56581133	     62.43454581	   1091.45328018	     11.08089914	     18.30587086	     11.50564729	     17.83860797	     38.90905745	    -40.64525309	    -45.00000000	    -43.02975666	  -1359.00437649	   2590.72174026	     24.63760250	    -39.73217520	   2182.19991224	    153.56933049	     -3.56741976	    -11.02564413
      8.74000000	    -38.07959389	    -11.45844002	     17.46245929	   -161.50162337	    804.07754208	      5.17593735	      3.64880814	    -45.00000000	     39.12992153	    -45.00000000	    -22.86331247	   3141.64957061	  -1733.23458421	     31.37845524	     62.91987562	   1091.29505146	     11.04364520	     18.13164393	     11.78204981	     18.03608428	     38.92553459	    -40.72597839	    -45.00000000	    -42.87716771	  -1359.49190897	   2590.71726021	     24.78943008	    -38.66692594	   2182.09801313	    149.86503234	     -3.84361666	    -11.68284285
      8.75000000	    -37.96866535	    -11.70192603	     17.80083641	   -157.64100089	    801.68446126	      5.35371948	      3.54872333	    -45.00000000	     39.15523452	    -45.00000000	    -22.80337801	   3141.90213804	  -1733.50279691	     31.16219676	     63.13119444	   1091.18227360	     10.99847824	     17.99783075	     12.06482271	     18.25194796	     39.06217823	    -40.85753788	    -45.00000000	    -42.86624636	  -1359.68709469	   2590.39452179	     24.96227353	    -37.95622720	   2181.89299064	    145.57624222	     -3.88386401	    -12.34781865
